# xmcd
#
# Track frame offsets: 
#        150
#        11478
#        31988
#        45729
#        50357
#        75036
#        91075
#        103495
#        119331
#        130069
#        150080
#        165082
#        182750
#
# Disc length: 2529 seconds
#
# Revision: 0
# Processed by: cddbd v1.5.2PL0 Copyright (c) Steve Scherf et al.
# Submitted via: ExactAudioCopyFreeDBPlugin 1.0
#
DISCID=8709df0d
DTITLE=Various Artist - A Very Threadhead Holiday
DYEAR=2009
DGENRE=Christmas
TTITLE0=Craig Klein - Christmas On My Mind
TTITLE1=Debbie Davis - Hanging Up My Stockings
TTITLE2=Glen David Andrews - Santa Got High For Christmas
TTITLE3=Matt Perrine - Carol Of The Bells
TTITLE4=Susan Cowsill - The World At Christmas Time
TTITLE5=John Boutté - Holding You This Christmas
TTITLE6=Ingrid Lucia - Christmas In New Orleans
TTITLE7=Shamarr Allen - Santa Passed My House Up
TTITLE8=Mary Lasseigne - All Jacked Up For The Holidays
TTITLE9=Alex McMurray - Santa, Let Me Call You A Cab
TTITLE10=Margie Perez - It's Christmas
TTITLE11=Paul Sanchez - Drunk This Christmas
TTITLE12=Paul Sanchez - A Very Threadhead Holiday Record Blues #9
EXTD=
EXTT0=
EXTT1=
EXTT2=
EXTT3=
EXTT4=
EXTT5=
EXTT6=
EXTT7=
EXTT8=
EXTT9=
EXTT10=
EXTT11=
EXTT12=
PLAYORDER=
